<?xml version="1.0" encoding="utf-8"?>
<!-- Generator: Adobe Illustrator 21.0.0, SVG Export Plug-In . SVG Version: 6.00 Build 0)  -->
<svg version="1.1" id="Layer_1" xmlns="http://www.w3.org/2000/svg" xmlns:xlink="http://www.w3.org/1999/xlink" x="0px" y="0px"
	 viewBox="0 0 32 32" style="enable-background:new 0 0 32 32;" xml:space="preserve">
<style type="text/css">
	.st0{fill:#CCCCCC;}
</style>
<title>search</title>
<path class="st0" d="M19.4,20.4c-1.4,1-3.1,1.6-4.9,1.6C9.8,22,6,18.2,6,13.5S9.8,5,14.5,5S23,8.8,23,13.5c0,1.8-0.6,3.5-1.6,4.9
	L27,24c0.5,0.5,0.5,1.4,0,2l0,0c-0.5,0.5-1.4,0.5-2,0L19.4,20.4L19.4,20.4z M14.5,20c3.6,0,6.5-2.9,6.5-6.5S18.1,7,14.5,7
	S8,9.9,8,13.5S10.9,20,14.5,20L14.5,20z"/>
</svg>
